<?xml version="1.0" encoding="UTF-8"?>
<svg width="37px" height="37px" viewBox="0 0 37 37" version="1.1" xmlns="http://www.w3.org/2000/svg" xmlns:xlink="http://www.w3.org/1999/xlink">
    <!-- Generator: Sketch 43.2 (39069) - http://www.bohemiancoding.com/sketch -->
    <title>correct</title>
    <desc>Created with Sketch.</desc>
    <defs></defs>
    <g id="Page-1" stroke="none" stroke-width="1" fill="none" fill-rule="evenodd">
        <g id="新增裝置詳細" transform="translate(-241.000000, -569.000000)" fill="#FFFFFF">
            <g id="Group-8" transform="translate(96.000000, 569.000000)">
                <path d="M155.857557,17.4130299 L155.857557,17.4130299 L160.863831,22.4132808 L175.053589,5.43790673 C175.531896,4.89647829 176.36096,4.83278082 176.903041,5.27866307 C177.445121,5.75639405 177.508896,6.58446108 177.062476,7.12588952 L161.979879,25.1841205 C161.724782,25.4707591 161.374024,25.6300027 161.023266,25.6618515 L160.959492,25.6618515 C160.608734,25.6618515 160.289863,25.5344565 160.034766,25.2796667 L154.008105,19.2602564 C153.497911,18.7506766 153.497911,17.9226096 154.008105,17.4130299 C154.518299,16.9034502 155.347363,16.9034502 155.857557,17.4130299 Z M173.267912,2.82631072 L173.267912,2.82631072 C173.873766,3.2084955 174.065089,4.0047138 173.682444,4.6098397 C173.299799,5.21496561 172.502621,5.406058 171.896766,5.02387321 C165.583121,1.1064792 157.515686,2.03009242 152.222428,7.28513318 C146.036331,13.4637872 146.036331,23.5598352 152.222428,29.7384891 C158.408524,35.9171431 168.516734,35.9171431 174.702831,29.7384891 C179.996089,24.4515996 180.920815,16.3620218 176.934928,10.0559728 C176.552283,9.45084694 176.743605,8.65462865 177.34946,8.27244386 C177.955315,7.89025908 178.752492,8.08135147 179.135138,8.68647738 C183.758767,16.0116857 182.706492,25.4389103 176.552283,31.5857156 C172.949041,35.1846223 168.197863,37 163.478573,37 C158.759282,37 154.008105,35.1846223 150.404863,31.5857156 C143.198379,24.3879022 143.198379,12.6357201 150.404863,5.43790673 C156.527186,-0.677049788 165.933879,-1.75990667 173.267912,2.82631072 Z" id="correct"></path>
            </g>
        </g>
    </g>
</svg>