<?xml version="1.0" encoding="UTF-8"?>
<svg width="10px" height="14px" viewBox="0 0 10 14" version="1.1" xmlns="http://www.w3.org/2000/svg" xmlns:xlink="http://www.w3.org/1999/xlink">
    <!-- Generator: Sketch 41.2 (35397) - http://www.bohemiancoding.com/sketch -->
    <title>wet</title>
    <desc>Created with Sketch.</desc>
    <defs></defs>
    <g id="Symbols" stroke="none" stroke-width="1" fill="none" fill-rule="evenodd">
        <g id="licon/wet" transform="translate(-4.000000, -2.000000)">
            <g id="wet">
                <path d="M13.736408,10.6224411 C13.736408,9.74142869 13.3266012,8.6115824 12.5954149,7.26290206 C12.3056245,6.7283807 11.9698388,6.16927315 11.5970233,5.59341901 C11.1400546,4.88758134 10.6512377,4.19244147 10.1624333,3.53724561 C9.99131271,3.3078747 9.83230445,3.09973463 9.68941046,2.91653581 C9.60317067,2.80597113 9.54109787,2.72783862 9.50720047,2.68586338 C9.30707353,2.43804555 8.92933468,2.43804554 8.72920773,2.68586337 C8.69531033,2.72783861 8.63323752,2.80597112 8.54699773,2.9165358 C8.40410373,3.09973462 8.24509546,3.30787469 8.07397485,3.5372456 C7.58517042,4.19244145 7.09635349,4.88758133 6.63938483,5.593419 C6.26656923,6.16927314 5.93078357,6.72838069 5.6409931,7.26290205 C4.90980679,8.61158239 4.5,9.74142869 4.5,10.6224411 C4.5,13.3802702 6.5278033,15.5 9.11820398,15.5 C11.7086047,15.5 13.736408,13.3802702 13.736408,10.6224411 Z M5.5,10.6224411 C5.5,9.95187855 5.86247999,8.95251328 6.52010726,7.73951331 C6.79662489,7.22947383 7.11929853,6.69219876 7.47881927,6.13687997 C7.92270775,5.45124605 8.39909491,4.77378238 8.87549456,4.13521395 C9.04219538,3.91176736 9.19687844,3.70928894 9.3355023,3.53156469 C9.41817322,3.42557553 9.47675092,3.3518424 9.50720047,3.31413663 L8.72920772,3.31413662 C8.75965726,3.35184239 8.81823496,3.42557552 8.90090587,3.53156468 C9.03952972,3.70928893 9.19421278,3.91176735 9.36091358,4.13521394 C9.83731321,4.77378237 10.3137003,5.45124603 10.7575888,6.13687996 C11.1171095,6.69219875 11.4397831,7.22947382 11.7163007,7.7395133 C12.373928,8.95251327 12.736408,9.95187855 12.736408,10.6224411 C12.736408,12.83766 11.1461588,14.5 9.11820398,14.5 C7.09024916,14.5 5.5,12.83766 5.5,10.6224411 Z" id="Oval-4" fill="#FFFFFF"></path>
                <rect id="Rectangle-2" x="0" y="0" width="18" height="18"></rect>
            </g>
        </g>
    </g>
</svg>