<?xml version="1.0" encoding="UTF-8"?>
<svg width="18px" height="12px" viewBox="0 0 18 12" version="1.1" xmlns="http://www.w3.org/2000/svg" xmlns:xlink="http://www.w3.org/1999/xlink">
    <!-- Generator: Sketch 41.2 (35397) - http://www.bohemiancoding.com/sketch -->
    <title>Windy</title>
    <desc>Created with Sketch.</desc>
    <defs></defs>
    <g id="Page-1" stroke="none" stroke-width="1" fill="none" fill-rule="evenodd">
        <g id="往上滑動展開項目（單一群組頁）" transform="translate(-28.000000, -478.000000)">
            <g id="licon/Windy" transform="translate(28.000000, 475.000000)">
                <g id="Windy">
                    <path d="M3.42857143,7.3006993 L11.9999976,7.3006993 C13.1834674,7.3006993 14.1428571,6.33795503 14.1428571,5.15034965 C14.1428571,3.96274427 13.1834674,3 12,3 C10.8165332,3 9.85714379,3.96274333 9.85714286,5.15034791 C9.85714286,5.38787073 10.0490208,5.58041958 10.2857143,5.58041958 C10.5224078,5.58041958 10.7142857,5.38787073 10.7142857,5.15034965 C10.7142857,4.43778642 11.2899196,3.86013986 12,3.86013986 C12.7100804,3.86013986 13.2857143,4.43778642 13.2857143,5.15034965 C13.2857143,5.86291288 12.7100804,6.44055944 12,6.44055944 L10.0713501,6.44055944 L3.42857143,6.44055944 C3.19187795,6.44055944 3,6.6331083 3,6.87062937 C3,7.10815045 3.19187795,7.3006993 3.42857143,7.3006993 L3.42857143,7.3006993 Z" id="Rectangle-64" fill="#FFFFFF"></path>
                    <path d="M2.14285714,9.88111888 L9.42856949,9.88111888 C10.3753453,9.88111888 11.1428571,10.6513143 11.1428571,11.6013986 C11.1428571,12.5514829 10.3753453,13.3216783 9.42857143,13.3216783 C8.48179752,13.3216783 7.71428571,12.5514829 7.71428571,11.6013986 C7.71428571,11.3638775 7.90616367,11.1713287 8.14285714,11.1713287 C8.37955062,11.1713287 8.57142857,11.3638775 8.57142857,11.6013986 C8.57142857,12.0764408 8.95518448,12.4615385 9.42857143,12.4615385 C9.90195838,12.4615385 10.2857143,12.0764408 10.2857143,11.6013986 C10.2857143,11.1263565 9.90195838,10.7412587 9.42857143,10.7412587 L7.61467044,10.7412587 L2.14285714,10.7412587 C1.90616367,10.7412587 1.71428571,10.5487099 1.71428571,10.3111888 C1.71428571,10.0736677 1.90616367,9.88111888 2.14285714,9.88111888 L2.14285714,9.88111888 Z" id="Rectangle-64" fill="#FFFFFF"></path>
                    <path d="M0.428571482,8.16083916 L14.9999969,8.16083916 C16.6568543,8.16083916 18,9.50868114 18,11.1713287 C18,12.8339762 16.6568543,14.1818182 15,14.1818182 C13.3431457,14.1818182 12,12.8339762 12,11.1713287 C12,10.634564 12.1399879,10.1306096 12.385326,9.69422438 C12.3885617,9.68750533 12.3919665,9.68088358 12.3955348,9.67436471 C12.4683914,9.54126358 12.6094087,9.45104895 12.7714233,9.45104895 C13.0081168,9.45104895 13.1999948,9.64359781 13.1999948,9.88111888 C13.1999948,9.96597612 13.1755042,10.0450933 13.1332291,10.1117409 C13.1337324,10.1118431 13.1342384,10.1119453 13.1347469,10.1120475 C12.9580365,10.4247174 12.8571429,10.7861993 12.8571429,11.1713287 C12.8571429,12.358934 13.8165326,13.3216783 15,13.3216783 C16.1834674,13.3216783 17.1428571,12.358934 17.1428571,11.1713287 C17.1428571,9.98372329 16.1834674,9.02097902 15,9.02097902 L12.2359322,9.02097902 L0.428571429,9.02097902 C0.191877953,9.02097902 0,8.82843017 0,8.59090909 C0,8.35338802 0.191877953,8.16083916 0.428571429,8.16083916 L0.428571482,8.16083916 Z" id="Rectangle-64" fill="#FFFFFF"></path>
                    <rect id="Rectangle" x="0" y="0" width="18" height="18"></rect>
                </g>
            </g>
        </g>
    </g>
</svg>